<?xml version="1.0" encoding="utf-8"?>
<!-- Generator: Adobe Illustrator 25.2.3, SVG Export Plug-In . SVG Version: 6.00 Build 0)  -->
<svg version="1.1" xmlns="http://www.w3.org/2000/svg" xmlns:xlink="http://www.w3.org/1999/xlink" x="0px" y="0px"
	 viewBox="0 0 555.67 555.67" style="enable-background:new 0 0 555.67 555.67;" xml:space="preserve">
<style type="text/css">
	.st0{fill:#FFFFFF;}
	.st1{font-family:'Montserrat-Bold';}
	.st2{font-size:26.2024px;}
	.st3{letter-spacing:8;}
	.st4{fill:none;stroke:#FFFFFF;stroke-width:2;stroke-miterlimit:10;}
</style>
<g id="Layer_1">
	<g>
		<path class="st0" d="M349.33,85.88l75.84,76.25L276.9,309.7L129.46,161.71l75.84-75.84H349.33z M216.93,99.24l-63.59,63.59
			l123.63,124.09l124.32-123.75L337.7,99.24H216.93z"/>
		<path class="st0" d="M282.05,171.61c5.55,0,10.71,0,16.05,0c0,1.46,0,2.54,0,4.05c-5.27,0-10.42,0-15.87,0
			c0,23.88,0,47.34,0,71.35c5.18,0,10.43,0,15.87,0c0,1.64,0,2.73,0,4.04c-15.68,0-31.23,0-47.08,0c-0.07-1.13-0.15-2.22-0.26-3.87
			c5.24,0,10.23,0,15.42,0c0-24.01,0-47.49,0-71.36c-5.06,0-9.95,0-15.1,0c-0.13-1.47-0.22-2.56-0.36-4.16c5.25,0,10.25,0,15.3,0
			c0.39-7.71,0.53-14.96,1.19-22.17c0.87-9.55,3.38-18.62,9.45-26.34c6.91-8.81,19.4-12.97,30.1-9.86c4.52,1.31,8.2,3.71,9.65,8.7
			c1.03,3.55,0.6,6.51-2.6,8.53c-3.15,2-6.57,2.01-9.42-0.46c-2.74-2.38-3.61-5.61-2.38-9.18c0.37-1.06,0.82-2.09,1.22-3.1
			c-5.35-2.91-11.14-1.36-14.93,3.77c-4.42,6-5.8,13.08-6.15,20.19C281.69,151.47,282.05,161.23,282.05,171.61z"/>
		<path class="st0" d="M325.57,180.32c-4.21-0.02-7-2.9-6.93-7.13c0.06-3.87,3.05-6.89,6.87-6.95c3.94-0.06,7.17,3.1,7.19,7.07
			C332.72,177.39,329.73,180.34,325.57,180.32z"/>
	</g>
	<g>
		<path class="st0" d="M82,395.13v-41.63h-8.51v-1.85H82v-4.97c0-2.85,0.11-5.97,0.34-9.37c0.23-3.39,0.88-6.4,1.96-9.02
			c1.53-3.62,3.52-6.17,5.98-7.63c2.45-1.46,4.91-2.2,7.36-2.2c3.22,0,5.77,0.81,7.65,2.43c1.88,1.62,2.82,3.35,2.82,5.2
			c0,1.08-0.29,2.02-0.86,2.83c-0.57,0.81-1.51,1.21-2.82,1.21c-1.07,0-1.99-0.33-2.76-0.98c-0.77-0.65-1.15-1.6-1.15-2.83
			c0-0.77,0.19-1.48,0.57-2.14c0.38-0.65,0.96-1.17,1.73-1.56c0.15-0.08,0.23-0.23,0.23-0.46c0-0.31-0.48-0.69-1.44-1.16
			c-0.96-0.46-2.2-0.69-3.74-0.69c-3.99,0-5.98,2.89-5.98,8.67v22.67h9.31v1.85h-9.31v41.63h8.62v1.85H73.38v-1.85H82z"/>
		<path class="st0" d="M119.78,350.77c2.18-0.5,4.46-0.75,6.84-0.75c5.06,0,8.81,0.91,11.27,2.72c2.45,1.81,3.68,4.38,3.68,7.69
			v27.99c0,2.24,0.15,3.99,0.46,5.26c0.31,1.27,1.23,1.91,2.76,1.91c1.07,0,2.07-0.41,2.99-1.21s1.69-1.87,2.3-3.18
			c0.31-0.62,0.58-0.93,0.81-0.93s0.34,0.19,0.34,0.58c0,0.46-0.17,1.14-0.52,2.02c-0.35,0.89-0.94,1.75-1.78,2.6
			c-0.84,0.85-1.94,1.58-3.28,2.2c-1.34,0.62-3.01,0.92-5,0.92c-3.07,0-5.21-0.68-6.44-2.02c-1.23-1.35-1.95-2.83-2.18-4.45
			c-0.46,0.69-1.07,1.41-1.84,2.14c-0.77,0.73-1.71,1.43-2.82,2.08c-1.11,0.65-2.38,1.19-3.79,1.62c-1.42,0.42-3.01,0.64-4.77,0.64
			c-1.69,0-3.28-0.19-4.77-0.58c-1.49-0.39-2.82-0.98-3.97-1.79s-2.05-1.89-2.7-3.24c-0.65-1.35-0.98-2.95-0.98-4.8
			c0-2.54,0.65-4.84,1.95-6.88c1.3-2.04,3.1-3.76,5.4-5.15s4.98-2.45,8.05-3.18c3.06-0.73,6.36-1.1,9.89-1.1v-13.65
			c0-2.62-0.69-4.39-2.07-5.32c-1.38-0.92-3.26-1.39-5.63-1.39c-0.84,0-1.71,0.08-2.59,0.23c-0.88,0.16-1.67,0.35-2.36,0.58
			s-1.27,0.5-1.73,0.81c-0.46,0.31-0.69,0.62-0.69,0.93c0,0.23,0.12,0.42,0.35,0.58c0.23,0.16,0.54,0.42,0.92,0.81
			c0.54,0.54,0.9,1.1,1.09,1.68c0.19,0.58,0.29,1.14,0.29,1.68c0,1.16-0.4,2.12-1.21,2.89c-0.8,0.77-1.86,1.16-3.16,1.16
			c-1.3,0-2.32-0.44-3.05-1.33c-0.73-0.89-1.09-1.87-1.09-2.95c0-2.24,1.23-4.16,3.68-5.78
			C115.81,351.95,117.59,351.28,119.78,350.77z M125.64,373.79c-1.95,0.35-3.68,0.95-5.17,1.79c-1.5,0.85-2.7,2.04-3.62,3.58
			c-0.92,1.54-1.38,3.59-1.38,6.13c0,3.16,0.61,5.67,1.84,7.52c1.23,1.85,3.03,2.78,5.4,2.78c0.69,0,1.55-0.19,2.59-0.58
			c1.03-0.38,2.03-0.91,2.99-1.56c0.96-0.65,1.76-1.37,2.41-2.14c0.65-0.77,0.98-1.5,0.98-2.2v-16.08
			C129.61,373.19,127.6,373.44,125.64,373.79z"/>
		<path class="st0" d="M184.34,350.02c0.23,0,0.35,0.27,0.35,0.81v12.37c0,0.46-0.15,0.69-0.46,0.69c-0.38,0-0.61-0.23-0.69-0.69
			c-0.23-1.31-0.63-2.64-1.21-3.99c-0.58-1.35-1.34-2.56-2.3-3.64c-0.96-1.08-2.15-1.97-3.56-2.66c-1.42-0.69-3.05-1.04-4.89-1.04
			c-2.91,0-5.33,0.81-7.24,2.43c-1.92,1.62-2.88,3.43-2.88,5.44c0,1.46,0.33,2.6,0.98,3.41c0.65,0.81,1.74,1.49,3.28,2.02
			c0.77,0.23,1.74,0.5,2.93,0.81c1.19,0.31,2.38,0.62,3.56,0.92c1.19,0.31,2.32,0.6,3.39,0.87c1.07,0.27,1.96,0.52,2.65,0.75
			c4.06,1.39,6.82,3.39,8.28,6.01c1.46,2.62,2.18,5.4,2.18,8.33c0,2.24-0.34,4.3-1.03,6.19c-0.69,1.89-1.71,3.55-3.05,4.97
			c-1.34,1.43-2.97,2.54-4.89,3.35c-1.92,0.81-4.14,1.21-6.67,1.21c-3.07,0-5.65-0.44-7.76-1.33c-2.11-0.89-3.85-2.06-5.23-3.53
			l-2.41,3.58c-0.23,0.38-0.5,0.58-0.81,0.58c-0.46,0-0.69-0.31-0.69-0.92V384.6c0-0.62,0.23-0.92,0.69-0.92
			c0.38,0,0.69,0.35,0.92,1.04c1.07,4.09,2.95,7.11,5.63,9.08c2.68,1.97,5.79,2.95,9.31,2.95c1.23,0,2.53-0.17,3.91-0.52
			c1.38-0.35,2.68-0.88,3.91-1.62c1.23-0.73,2.24-1.69,3.05-2.89c0.81-1.2,1.21-2.6,1.21-4.22c0-1.23-0.29-2.43-0.86-3.58
			c-0.58-1.16-1.63-2.16-3.16-3.01c-0.92-0.54-1.97-1.02-3.16-1.45c-1.19-0.42-2.41-0.81-3.68-1.16c-1.26-0.35-2.51-0.65-3.74-0.92
			c-1.23-0.27-2.34-0.52-3.33-0.75c-3.3-0.77-5.77-2.24-7.42-4.39c-1.65-2.16-2.47-4.66-2.47-7.52c0-1.85,0.33-3.66,0.98-5.44
			c0.65-1.77,1.61-3.35,2.88-4.74c1.26-1.39,2.85-2.49,4.77-3.3c1.92-0.81,4.1-1.21,6.55-1.21c3.45,0,6.36,1.08,8.74,3.24l2.65-2.66
			C183.92,350.22,184.19,350.02,184.34,350.02z"/>
		<path class="st0" d="M218.09,352.91c2.72-1.93,6.34-2.89,10.87-2.89c4.14,0,7.38,0.91,9.72,2.72c2.34,1.81,3.51,4.45,3.51,7.92
			v34.46h8.05v1.85h-25.87v-1.85h7.93v-33.19c0-1.08-0.06-2.14-0.17-3.18c-0.11-1.04-0.4-1.98-0.86-2.83
			c-0.46-0.85-1.15-1.54-2.07-2.08c-0.92-0.54-2.19-0.81-3.79-0.81c-1.99,0-3.79,0.46-5.4,1.39s-3.03,2.06-4.25,3.41
			c-1.23,1.35-2.17,2.78-2.82,4.28c-0.65,1.5-0.98,2.87-0.98,4.11v28.91h8.05v1.85H194v-1.85h8.05v-74.02H194v-1.85h17.94v40.48
			C213.32,357.12,215.37,354.84,218.09,352.91z"/>
		<path class="st0" d="M273.92,395.13h8.62v1.85h-27.14v-1.85h8.62v-41.63h-8.62v-1.85h18.51V395.13z M273.12,334.53
			c-1.15,1.16-2.57,1.73-4.25,1.73c-1.69,0-3.1-0.58-4.25-1.73c-1.15-1.16-1.72-2.58-1.72-4.28c0-1.7,0.58-3.12,1.72-4.28
			c1.15-1.16,2.57-1.73,4.25-1.73c1.69,0,3.1,0.58,4.25,1.73c1.15,1.16,1.72,2.58,1.72,4.28
			C274.84,331.94,274.26,333.37,273.12,334.53z"/>
		<path class="st0" d="M300.54,396.23c-2.8-1.58-5.2-3.57-7.19-5.96c-1.99-2.39-3.53-5.01-4.6-7.86c-1.07-2.85-1.61-5.55-1.61-8.1
			c0-2.54,0.54-5.24,1.61-8.1c1.07-2.85,2.61-5.47,4.6-7.86c1.99-2.39,4.39-4.37,7.19-5.96c2.8-1.58,5.92-2.37,9.37-2.37
			c3.45,0,6.57,0.79,9.37,2.37c2.8,1.58,5.17,3.57,7.13,5.96c1.95,2.39,3.47,5.01,4.54,7.86c1.07,2.85,1.61,5.55,1.61,8.1
			c0,2.54-0.54,5.24-1.61,8.1c-1.08,2.85-2.59,5.48-4.54,7.86c-1.96,2.39-4.33,4.38-7.13,5.96c-2.8,1.58-5.92,2.37-9.37,2.37
			C306.46,398.6,303.34,397.8,300.54,396.23z M299.1,376.74c0,3.47,0.13,6.46,0.4,8.96c0.27,2.51,0.79,4.57,1.55,6.19
			c0.77,1.62,1.86,2.83,3.28,3.64c1.42,0.81,3.28,1.21,5.58,1.21s4.16-0.4,5.58-1.21c1.42-0.81,2.49-2.02,3.22-3.64
			c0.73-1.62,1.23-3.68,1.5-6.19c0.27-2.5,0.4-5.49,0.4-8.96v-4.97c0-3.24-0.13-6.09-0.4-8.56c-0.27-2.47-0.77-4.55-1.5-6.25
			c-0.73-1.69-1.8-2.97-3.22-3.82c-1.42-0.85-3.28-1.27-5.58-1.27s-4.16,0.42-5.58,1.27c-1.42,0.85-2.51,2.12-3.28,3.82
			c-0.77,1.7-1.28,3.78-1.55,6.25c-0.27,2.47-0.4,5.32-0.4,8.56V376.74z"/>
		<path class="st0" d="M361.94,353.61c2.64-1.93,6.07-2.89,10.29-2.89c3.53,0,6.42,0.77,8.68,2.31c2.26,1.54,3.39,4.32,3.39,8.33
			v33.77h8.05v1.85h-25.99v-1.85h8.05v-32.96c0-3.01-0.52-5.21-1.55-6.59s-2.67-2.08-4.89-2.08c-1.54,0-3.01,0.42-4.43,1.27
			c-1.42,0.85-2.68,1.93-3.79,3.24c-1.11,1.31-2.01,2.72-2.7,4.22c-0.69,1.5-1.04,2.91-1.04,4.22v28.68h8.05v1.85h-25.99v-1.85h8.05
			v-41.63h-8.05v-1.85h17.94v8.79C357.32,357.81,359.3,355.54,361.94,353.61z"/>
		<path class="st0" d="M424.56,351.64v1.85H413.4v31.46c0,3.7,0.57,6.48,1.72,8.33c1.15,1.85,3.07,2.78,5.75,2.78
			c1.99,0,3.68-0.75,5.06-2.26c1.38-1.5,2.26-3.57,2.64-6.19c0.08-0.77,0.42-1.16,1.04-1.16c0.46,0,0.69,0.31,0.69,0.93
			c0,0.16,0,0.27,0,0.35c0,0.08-0.04,0.31-0.12,0.69c-0.54,3.16-1.74,5.65-3.62,7.46c-1.88,1.81-5.08,2.72-9.6,2.72
			c-4.37,0-7.7-1.23-10-3.7s-3.45-5.86-3.45-10.18v-31.23h-7.82v-1.85h7.82v-13.18l9.89-4.97v18.16H424.56z"/>
		<path class="st0" d="M456.3,351.64v1.85h-8.05l12.19,30.18l11.96-30.18h-8.17v-1.85h17.02v1.85h-6.79l-17.48,43.95h-0.92
			l-18.4-43.95h-7.47v-1.85H456.3z"/>
	</g>
	<rect x="73.38" y="415.27" class="st0" width="407.87" height="54.52"/>
	<text transform="matrix(1 0 0 1 82.1795 450.9443)" class="st1 st2 st3">BEAUTY INSTITUTE</text>
	
		<text transform="matrix(-0.6268 0 0 -1 131.3374 668.0634)" class="st0" style="font-family:'MyriadPro-Bold'; font-size:43.079px;">&gt;</text>
	
		<text transform="matrix(-0.6268 0 0 -1 143.2206 668.0634)" class="st0" style="font-family:'MyriadPro-Bold'; font-size:43.079px;">&gt;</text>
	<circle class="st4" cx="130.34" cy="679.15" r="19.56"/>
</g>
<g id="Layer_2">
</g>
</svg>
